<svg width="153" height="55" viewBox="0 0 153 55" fill="none" xmlns="http://www.w3.org/2000/svg">
<path d="M1.68 19.2H6.432V32.232H14.448V36H1.68V19.2Z" fill="#2A2367"/>
<path d="M75.168 32.328V36H61.68V19.2H74.856V22.872H66.384V25.704H73.848V29.256H66.384V32.328H75.168ZM95.469 19.2V36H91.557L84.141 27.048V36H79.485V19.2H83.397L90.813 28.152V19.2H95.469ZM100.501 19.2H105.253V36H100.501V19.2ZM118.066 36.336C115.57 36.336 113.626 35.656 112.234 34.296C110.858 32.936 110.17 31.008 110.17 28.512V19.2H114.922V28.368C114.922 31.056 115.986 32.4 118.114 32.4C120.226 32.4 121.282 31.056 121.282 28.368V19.2H125.962V28.512C125.962 31.008 125.266 32.936 123.874 34.296C122.498 35.656 120.562 36.336 118.066 36.336ZM146.029 36L145.981 27.096L141.661 34.344H139.549L135.253 27.336V36H130.861V19.2H134.773L140.677 28.896L146.437 19.2H150.349L150.397 36H146.029Z" fill="#2A2367"/>
<rect x="20" y="19" width="7" height="17" fill="#6B5AF9"/>
<rect x="34" y="7" width="7" height="41" fill="#6B5AF9"/>
<rect x="48" width="7" height="55" fill="#6B5AF9"/>
</svg>
