<svg width="11" height="12" viewBox="0 0 11 12" fill="none" xmlns="http://www.w3.org/2000/svg">
<path d="M2.45573 4.512V3.424C2.45573 2.55834 2.79962 1.72813 3.41173 1.11601C4.02385 0.503888 4.85406 0.160004 5.71973 0.160004C6.5854 0.160004 7.41561 0.503888 8.02773 1.11601C8.63984 1.72813 8.98373 2.55834 8.98373 3.424V4.512H9.52773C9.81628 4.512 10.093 4.62663 10.2971 4.83067C10.5011 5.03471 10.6157 5.31145 10.6157 5.6V9.952C10.6157 10.2406 10.5011 10.5173 10.2971 10.7213C10.093 10.9254 9.81628 11.04 9.52773 11.04H1.91173C1.62317 11.04 1.34644 10.9254 1.1424 10.7213C0.938359 10.5173 0.82373 10.2406 0.82373 9.952V5.6C0.82373 5.0016 1.31333 4.512 1.91173 4.512H2.45573ZM5.17573 8.17312V9.408H6.26373V8.17312C6.47115 8.05337 6.63326 7.86852 6.72491 7.64725C6.81657 7.42597 6.83265 7.18064 6.77066 6.94929C6.70867 6.71795 6.57207 6.51352 6.38206 6.36772C6.19205 6.22192 5.95924 6.14289 5.71973 6.14289C5.48022 6.14289 5.24741 6.22192 5.0574 6.36772C4.86738 6.51352 4.73079 6.71795 4.6688 6.94929C4.60681 7.18064 4.62289 7.42597 4.71455 7.64725C4.8062 7.86852 4.96831 8.05337 5.17573 8.17312ZM4.08773 3.424V4.512H7.35173V3.424C7.35173 2.99117 7.17979 2.57607 6.87373 2.27001C6.56767 1.96395 6.15256 1.792 5.71973 1.792C5.2869 1.792 4.87179 1.96395 4.56573 2.27001C4.25967 2.57607 4.08773 2.99117 4.08773 3.424Z" fill="white"/>
</svg>
