<svg width="24" height="16" viewBox="0 0 24 16" xmlns="http://www.w3.org/2000/svg">
<path d="M23.6164 2.09693L22.8302 1.30531C22.5828 1.05809 22.2536 0.921896 21.9018 0.921896C21.5502 0.921896 21.2207 1.05809 20.9732 1.30531L12.0054 10.2736L3.02715 1.29536C2.78012 1.04814 2.45056 0.91214 2.09894 0.91214C1.74733 0.91214 1.41757 1.04814 1.17035 1.29536L0.384003 2.0821C-0.128001 2.59371 -0.128001 3.42709 0.384003 3.9387L11.0737 14.6668C11.3207 14.9138 11.6499 15.0879 12.0046 15.0879H12.0087C12.3605 15.0879 12.6897 14.9136 12.9367 14.6668L23.6164 3.96777C23.8638 3.72075 23.9996 3.38162 24 3.03001C24 2.6782 23.8638 2.34376 23.6164 2.09693Z"/>
</svg>
