<svg width="153" height="55" fill="none" xmlns="http://www.w3.org/2000/svg"><path d="M1.68 19.2h4.752v13.032h8.016V36H1.68V19.2zm73.488 13.128V36H61.68V19.2h13.176v3.672h-8.472v2.832h7.464v3.552h-7.464v3.072h8.784zM95.469 19.2V36h-3.912l-7.416-8.952V36h-4.656V19.2h3.912l7.416 8.952V19.2h4.656zm5.032 0h4.752V36h-4.752V19.2zm17.565 17.136c-2.496 0-4.44-.68-5.832-2.04-1.376-1.36-2.064-3.288-2.064-5.784V19.2h4.752v9.168c0 2.688 1.064 4.032 3.192 4.032 2.112 0 3.168-1.344 3.168-4.032V19.2h4.68v9.312c0 2.496-.696 4.424-2.088 5.784-1.376 1.36-3.312 2.04-5.808 2.04zM146.029 36l-.048-8.904-4.32 7.248h-2.112l-4.296-7.008V36h-4.392V19.2h3.912l5.904 9.696 5.76-9.696h3.912l.048 16.8h-4.368z" fill="#fff"/><path fill="#6B5AF9" d="M20 19h7v17h-7zM34 7h7v41h-7zm14-7h7v55h-7z"/></svg>