<?xml version="1.0" encoding="utf-8"?><svg viewBox="0 0 24 21" xmlns="http://www.w3.org/2000/svg" xmlns:xlink="http://www.w3.org/1999/xlink"><style>:root>svg{display:none}:root>svg:target{display:block}</style><svg fill="none" viewBox="0 0 10 8" id="check-mark" xmlns="http://www.w3.org/2000/svg"><path d="M9.854.475a.5.5 0 00-.708 0l-5.99 5.99L.854 4.162a.5.5 0 00-.708.707l2.657 2.657a.5.5 0 00.707 0l6.344-6.344a.5.5 0 000-.707z" fill="#fff"/></svg><svg viewBox="0 0 20 20" id="close" xmlns="http://www.w3.org/2000/svg"><path d="M19.378 16.377a2.12 2.12 0 01-1.5 3.623 2.116 2.116 0 01-1.501-.622L10 13.001l-6.377 6.377a2.116 2.116 0 01-1.5.622 2.12 2.12 0 01-1.5-3.623L6.998 10 .622 3.623a2.12 2.12 0 010-3 2.12 2.12 0 013.001 0L10 7 16.377.622a2.12 2.12 0 013 0c.83.83.83 2.171 0 3.001L13.002 10l6.377 6.377z"/></svg><svg fill="none" viewBox="0 0 11 12" id="lock" xmlns="http://www.w3.org/2000/svg"><path d="M2.456 4.512V3.424a3.264 3.264 0 016.528 0v1.088h.544A1.088 1.088 0 0110.616 5.6v4.352a1.088 1.088 0 01-1.088 1.088H1.912A1.088 1.088 0 01.824 9.952V5.6c0-.598.49-1.088 1.088-1.088h.544zm2.72 3.661v1.235h1.088V8.173a1.088 1.088 0 10-1.088 0zM4.088 3.424v1.088h3.264V3.424a1.632 1.632 0 10-3.264 0z" fill="#fff"/></svg><svg fill="none" viewBox="0 0 21 21" id="phone" xmlns="http://www.w3.org/2000/svg"><path d="M19.788 15.006l-2.794-2.794c-.998-.998-2.694-.599-3.093.698-.3.898-1.297 1.397-2.195 1.198-1.996-.5-4.69-3.094-5.19-5.19-.299-.897.3-1.895 1.198-2.194 1.297-.4 1.697-2.096.699-3.094L5.619.836C4.82.138 3.623.138 2.925.836L1.029 2.732c-1.896 1.996.2 7.285 4.89 11.974 4.689 4.69 9.978 6.886 11.973 4.89l1.896-1.896c.699-.798.699-1.996 0-2.694z" fill="#fff"/></svg><svg viewBox="0 0 24 16" id="scroll-arrow" xmlns="http://www.w3.org/2000/svg"><path d="M23.616 2.097l-.786-.792a1.304 1.304 0 00-.928-.383c-.352 0-.681.136-.929.383l-8.968 8.969-8.978-8.979A1.303 1.303 0 002.1.912c-.352 0-.681.136-.929.383l-.786.787a1.314 1.314 0 000 1.857l10.69 10.728c.247.247.576.42.93.42h.005c.351 0 .68-.173.928-.42l10.68-10.7c.247-.246.383-.585.383-.937 0-.352-.136-.686-.384-.933z"/></svg><svg viewBox="0 0 18 18" id="telegram" xmlns="http://www.w3.org/2000/svg"><path d="M9 18A9 9 0 109 0a9 9 0 000 18z"/><path d="M4.118 8.805l8.678-3.346c.402-.145.754.099.624.708v-.001l-1.477 6.96c-.11.494-.403.614-.813.382l-2.25-1.659-1.085 1.046c-.12.12-.222.221-.454.221l.16-2.29 4.17-3.767c.181-.16-.04-.25-.28-.09l-5.153 3.244-2.222-.693c-.482-.153-.493-.482.102-.715z" fill="currentColor"/></svg><svg viewBox="0 0 18 18" id="whatsapp" xmlns="http://www.w3.org/2000/svg"><path d="M9.002 0h-.004C4.035 0 0 4.037 0 9c0 1.969.634 3.793 1.713 5.275L.592 17.62l3.46-1.106A8.922 8.922 0 009.001 18C13.965 18 18 13.962 18 9s-4.035-9-8.998-9z"/><path d="M14.24 12.71c-.218.612-1.08 1.12-1.767 1.27-.47.1-1.085.18-3.152-.678-2.645-1.096-4.348-3.783-4.481-3.958C4.713 9.17 3.77 7.921 3.77 6.63c0-1.292.656-1.92.92-2.19.217-.222.576-.324.92-.324.112 0 .212.006.302.01.264.012.397.027.571.445.218.523.746 1.814.81 1.947.064.133.128.313.038.487-.085.18-.159.26-.292.413-.133.153-.258.27-.391.434-.122.143-.259.296-.106.56.153.26.682 1.122 1.46 1.815 1.005.895 1.82 1.18 2.11 1.302.218.09.477.069.635-.1.202-.217.45-.577.703-.932.18-.254.408-.285.646-.195.243.084 1.529.72 1.793.851.265.133.44.196.503.307.063.112.063.635-.154 1.25z" fill="currentColor"/></svg></svg>